<svg xmlns="http://www.w3.org/2000/svg" viewBox="40 320 520 170"><g fill="#fff"><path d="M85.29,324.67h34.81l54.56,158.45h-31.43l-25.49-84.31c-5.32-16.76-10.24-34.84-15.15-52.23h-1.02c-4.61,17.54-9.52,35.47-14.84,52.23l-25.69,84.31h-30.3l54.56-158.45Z"/><path d="M176.52,341.57c0-10.5,7.78-17.64,18.22-17.64s18.22,7.14,18.22,17.64-7.78,17.64-18.22,17.64-18.22-7.36-18.22-17.64ZM180.17,390.93l29.21-7.3v99.48h-29.48l.27-92.18Z"/><path d="M222.7,390.47h18.94l1.77,12.72h.64c8.34-8.24,17.89-15,30.25-15,14.44,0,22.67,6.23,27.2,16.71,9.43-9.49,19.18-16.71,31.69-16.71,20.78,0,30.41,13.52,30.41,37.06v58.48h-23.11v-55.67c0-15.34-4.81-21.12-15.16-21.12-6.26,0-13,3.8-20.62,11.62v65.17h-23.11v-55.67c0-15.34-4.81-21.12-15.16-21.12-6.1,0-13,3.8-20.62,11.62v65.17h-23.11v-93.27Z"/><path d="M373.62,458.68c0-19.98,17.49-30.38,57.93-34.48-.32-10.02-4.57-18.38-17.89-18.38-9.79,0-19.02,4.18-27.68,9.19l-8.5-14.58c10.83-6.46,24.79-12.23,40.44-12.23,24.63,0,36.75,14.36,36.75,40.33v55.22h-18.94l-1.77-10.33h-.64c-8.83,7.14-18.94,12.61-30.57,12.61-17.25,0-29.12-11.09-29.12-27.34ZM431.55,458.75v-20.96c-26.72,3.19-35.62,9.8-35.62,19.22,0,8.24,5.94,11.85,14.2,11.85s14.12-3.72,21.42-10.1Z"/><path d="M468.9,390.47h18.94l1.77,12.61h.64c8.83-8.13,18.85-14.89,32.33-14.89,21.1,0,30.33,13.52,30.33,37.06v58.48h-23.11v-55.67c0-15.34-4.65-21.12-15.32-21.12-8.66,0-14.36,4.03-22.47,11.62v65.17h-23.11v-93.27Z"/></g><path fill="#fff" d="M98.22,334.35l5,.78,7.67,8.61,8.29-2.06,1.12,2.95,4.15,10.58,2.32,6.08,3.53,9.11,1.02,2.9,6.05,15,2.63-1.07,4.11-1.16,4.64-1.29,3.79-1.15,4.45-1.27c1.53-.36,3.39-.96,4.98-1.38l5.1-1.34,4.93-1.25c1.07-.26,2.17-.5,3.16-.75l7.65-1.79,5.17-1.08,5.22-1.03c2.44-.39,12.15-2.05,15.31-2.6.72-.13.49,1.39.49,2.14l.2,6.69c-1.14.6-9.18,2.22-10.52,2.53l-5.01,1.16-5.1,1.51-4.94,1.25-5.02,1.28c-1.35.34-2.96.86-4.41,1.32l-4.15,1.33-4.18,1.33-3.4,1.13-3.69,1.15c-.72.26-2.07.78-2.94,1.13l-6.17,2.47-2.3.95-3.55,1.32-6.46,2.46-2.75,1.15c-2.84,1.19-5.66,2.31-8.34,3.69l-6.45,3.32-5.6,2.87c-6.42,3.29-12.6,6.63-18.55,10.75l-3.56,2.46-2.93,1.8-3.97,3.02-4.93,3.71h0c-3.8,3.16-10.26,15.76-11.58,20.31-2.58,8.83-6.67,11.97-13.32,19.06-6.27,6.68-5.56-3.28-8.35,5.73l-1.85.75c-1.23.5-2.5.38-3.92.35M72.85,415.9c-.09,4.25-2.17,2.88-1.13,5.4.09.22.49-.31.76-.65l7.98-4.45,19-9.77c4.95-2.55,10.06-4.53,15.3-6.67.97-.39,2.25-.79,2.62-1.52.5-.98-.14-2.23-.51-3.21l-4.28-11.45-1.87-4.45-2.29-6.22-2.26-5.84-1.21-3.15-1.13-2.96-1.19-2.97-1.16-3.26-1.28-3.59c-.22-.61-1.15-1.69-1.73-1.54-1.08.28-.81.92-2.04,4.31l-3.91,10.74-.8,2.14-4.73,12.37-1.02,2.73-2.14,5.92-.68,2.01-2.31,5.63-.95,2.56-1.31,3.62-1.15,2.95-3.15,8.61c-.36.97-.92,1.97-1.4,2.69Z"/></svg>
